<svg width="389" height="82" viewBox="0 0 389 82" fill="none" xmlns="http://www.w3.org/2000/svg">
<path d="M100.231 30.1486V36.1999H138.951V44.7115H100.231V50.7621H138.951V59.5H91.1523V21.0319H138.951V30.1486H100.231Z" fill="white"/>
<path d="M58.0461 46.6491L25.3326 20.5005H17V59.0449H25.9434V33.3716L58.0931 59.0449H67.0366V20.5005H58.0461V46.6491Z" fill="white"/>
<path d="M286.772 46.8653C284.07 48.8346 280.104 49.8332 274.985 49.8332C269.865 49.8332 265.9 48.8346 263.197 46.8653C260.597 44.9704 259.333 42.6077 259.333 39.6427C259.333 36.6693 260.591 34.3273 263.18 32.483C265.909 30.5388 269.881 29.5523 274.985 29.5523C280.088 29.5523 284.06 30.5388 286.777 32.4745C289.342 34.3303 290.589 36.6748 290.589 39.6427C290.589 42.6022 289.337 44.968 286.772 46.8653ZM293.236 25.7077C288.499 22.2785 282.358 20.5398 274.985 20.5398C267.611 20.5398 261.47 22.2785 256.721 25.7168C251.865 29.2875 249.402 33.9734 249.402 39.6427C249.402 45.345 251.865 50.048 256.721 53.6193C261.437 57.0869 267.582 58.8457 274.985 58.8457C282.387 58.8457 288.532 57.0869 293.257 53.6126C298.076 50.0297 300.52 45.3298 300.52 39.6427C300.52 33.9893 298.076 29.3058 293.236 25.7077Z" fill="white"/>
<path d="M363.304 20.5005V46.6491L330.59 20.5005H322.258V59.0449H331.201V33.3716L363.351 59.0449H372.294V20.5005H363.304Z" fill="white"/>
<path d="M226.992 59.0898L211.196 58.9843L193.617 39.3189L210.4 20.5003H227.668L209.323 39.3128L226.992 59.0898Z" fill="white"/>
<path d="M160.243 59.0898L176.038 58.9843L193.617 39.3189L176.835 20.5003H159.566L177.911 39.3128L160.243 59.0898Z" fill="white"/>
</svg>
